<svg xmlns="http://www.w3.org/2000/svg" viewBox="0 0 512 512">
  <defs>
    <linearGradient id="bg" x1="0%" y1="0%" x2="100%" y2="100%">
      <stop offset="0%" style="stop-color:#3b82f6"/>
      <stop offset="100%" style="stop-color:#1d4ed8"/>
    </linearGradient>
  </defs>
  <!-- Background -->
  <rect width="512" height="512" rx="96" fill="url(#bg)"/>
  <!-- Dollar sign -->
  <path d="M256 96v24c-44 8-72 36-72 72 0 44 32 64 72 76v88c-24-4-44-16-56-36l-32 24c20 32 52 52 88 60v24h24v-24c48-8 80-40 80-80 0-48-36-68-80-80v-80c20 4 36 16 48 32l32-24c-20-28-48-48-80-52v-24h-24zm0 120c-24-8-40-20-40-40 0-16 12-32 40-40v80zm24 48c28 8 48 20 48 44 0 24-16 44-48 52v-96z" fill="white"/>
</svg>
